<svg width="174" height="60" viewBox="0 0 174 60" fill="none" xmlns="http://www.w3.org/2000/svg">
<path d="M89.3009 33.6289L91.1014 34.4998L89.3009 33.6289ZM64.4026 55.5137L64.7722 57.4793L64.4026 55.5137ZM57.4311 20.1999L55.8826 18.9341L57.4311 20.1999ZM162.017 59.7419C162.979 60.2847 164.199 59.9448 164.742 58.9828L173.587 43.306C174.13 42.344 173.79 41.1241 172.828 40.5813C171.866 40.0385 170.646 40.3784 170.103 41.3404L162.241 55.2753L148.306 47.4129C147.344 46.8701 146.124 47.21 145.581 48.172C145.038 49.134 145.378 50.3539 146.34 50.8967L162.017 59.7419ZM3.45447 15.4843C4.55248 15.3641 5.34508 14.3765 5.2248 13.2785C5.10452 12.1805 4.11691 11.3878 3.01891 11.5081L3.45447 15.4843ZM7.33424 11.0651C6.23477 11.1712 5.42949 12.1485 5.53558 13.2479C5.64168 14.3474 6.61897 15.1527 7.71844 15.0466L7.33424 11.0651ZM16.2138 14.3182C17.3153 14.2353 18.141 13.2752 18.058 12.1737C17.9751 11.0723 17.015 10.2466 15.9135 10.3295L16.2138 14.3182ZM24.5389 9.77107C23.4359 9.83059 22.59 10.773 22.6495 11.8759C22.709 12.9789 23.6514 13.8248 24.7544 13.7653L24.5389 9.77107ZM29.0165 13.5594C30.12 13.5125 30.9766 12.5798 30.9297 11.4763C30.8828 10.3727 29.9501 9.51612 28.8465 9.56304L29.0165 13.5594ZM33.1546 9.40597C32.0505 9.43936 31.1826 10.3615 31.216 11.4655C31.2493 12.5696 32.1714 13.4375 33.2755 13.4041L33.1546 9.40597ZM41.7891 13.2622C42.8936 13.2599 43.7871 12.3625 43.7847 11.2579C43.7823 10.1534 42.885 9.25986 41.7804 9.26225L41.7891 13.2622ZM50.4261 9.38939C49.3221 9.35289 48.3976 10.2182 48.361 11.3222C48.3245 12.4262 49.1899 13.3507 50.2939 13.3872L50.4261 9.38939ZM54.5366 13.5722C55.6395 13.6326 56.5826 12.7874 56.6429 11.6845C56.7033 10.5816 55.8581 9.63858 54.7552 9.57822L54.5366 13.5722ZM59.0866 9.86896C57.9856 9.78059 57.0214 10.6015 56.933 11.7025C56.8447 12.8036 57.6656 13.7678 58.7666 13.8561L59.0866 9.86896ZM67.1543 14.7979C68.2467 14.9612 69.2647 14.208 69.4281 13.1156C69.5914 12.0232 68.8382 11.0052 67.7458 10.8419L67.1543 14.7979ZM76.3518 12.5809C75.2846 12.2959 74.1885 12.9301 73.9036 13.9973C73.6186 15.0644 74.2528 16.1605 75.32 16.4455L76.3518 12.5809ZM79.256 17.6795C80.2925 18.0611 81.4422 17.5303 81.8239 16.4938C82.2056 15.4572 81.6747 14.3076 80.6382 13.9259L79.256 17.6795ZM84.8173 15.7818C83.8445 15.2587 82.6318 15.6234 82.1087 16.5963C81.5856 17.5691 81.9503 18.7818 82.9231 19.3049L84.8173 15.7818ZM88.2189 24.1796C88.7054 25.1712 89.9037 25.5806 90.8954 25.0941C91.887 24.6075 92.2964 23.4092 91.8099 22.4175L88.2189 24.1796ZM92.037 32.2658C92.4033 31.2237 91.8554 30.082 90.8133 29.7158C89.7712 29.3495 88.6296 29.8974 88.2633 30.9394L92.037 32.2658ZM86.2322 35.2843C85.7207 36.2633 86.0996 37.4716 87.0786 37.9832C88.0576 38.4947 89.2659 38.1157 89.7774 37.1368L86.2322 35.2843ZM86.7989 42.2928C87.3981 41.3649 87.1316 40.1269 86.2036 39.5277C85.2757 38.9286 84.0377 39.1951 83.4386 40.123L86.7989 42.2928ZM76.2787 48.2449C75.4089 48.9258 75.2558 50.1828 75.9366 51.0526C76.6175 51.9223 77.8745 52.0755 78.7443 51.3946L76.2787 48.2449ZM67.7413 56.803C68.8076 56.5149 69.4385 55.4169 69.1505 54.3506C68.8624 53.2843 67.7644 52.6533 66.6981 52.9414L67.7413 56.803ZM62.04 53.8603C60.9437 53.9954 60.1646 54.9937 60.2997 56.09C60.4348 57.1862 61.433 57.9654 62.5293 57.8303L62.04 53.8603ZM57.8924 58.0204C58.9954 58.0787 59.9369 57.2319 59.9952 56.1288C60.0536 55.0258 59.2067 54.0843 58.1036 54.026L57.8924 58.0204ZM51.5194 51.6321C50.7149 50.8753 49.4491 50.914 48.6923 51.7185C47.9355 52.5231 47.9742 53.7888 48.7787 54.5457L51.5194 51.6321ZM44.9352 45.4974C44.9987 46.6002 45.9441 47.4426 47.0468 47.3791C48.1496 47.3156 48.992 46.3702 48.9285 45.2675L44.9352 45.4974ZM49.134 41.4096C49.2977 40.3172 48.5449 39.2989 47.4525 39.1352C46.3602 38.9715 45.3419 39.7244 45.1782 40.8167L49.134 41.4096ZM46.1965 36.3586C45.877 37.416 46.4752 38.5321 47.5325 38.8516C48.5899 39.1711 49.706 38.5729 50.0255 37.5155L46.1965 36.3586ZM53.2081 30.0167C53.7336 29.0451 53.372 27.8315 52.4004 27.306C51.4289 26.7805 50.2153 27.1421 49.6898 28.1137L53.2081 30.0167ZM54.513 20.6711C53.8446 21.5505 54.0157 22.8052 54.895 23.4736C55.7744 24.142 57.0291 23.971 57.6975 23.0916L54.513 20.6711ZM60.1783 20.0545C60.9093 19.2264 60.8305 17.9625 60.0024 17.2315C59.1743 16.5006 57.9104 16.5793 57.1794 17.4074L60.1783 20.0545ZM59.9276 14.5241C59.1353 15.2938 59.1169 16.56 59.8865 17.3523C60.6561 18.1446 61.9223 18.163 62.7146 17.3934L59.9276 14.5241ZM68.3637 12.7077C69.2669 12.0718 69.4835 10.8241 68.8476 9.92095C68.2117 9.01779 66.9641 8.80114 66.0609 9.43705L68.3637 12.7077ZM72.9211 5.37825C71.9291 5.86398 71.5186 7.06195 72.0043 8.05398C72.4901 9.04602 73.688 9.45646 74.6801 8.97073L72.9211 5.37825ZM78.0413 7.48476C79.0681 7.07771 79.5705 5.91532 79.1635 4.88849C78.7564 3.86166 77.5941 3.35922 76.5672 3.76627L78.0413 7.48476ZM80.3245 2.44135C79.2695 2.76869 78.6797 3.88926 79.007 4.94421C79.3344 5.99916 80.4549 6.58901 81.5099 6.26166L80.3245 2.44135ZM88.6838 4.61003C89.7755 4.44172 90.524 3.4203 90.3557 2.32863C90.1874 1.23696 89.166 0.48843 88.0743 0.656743L88.6838 4.61003ZM95.9861 0.00471568C94.8817 0.0187668 93.9977 0.925515 94.0117 2.03C94.0258 3.13448 94.9325 4.01844 96.037 4.00439L95.9861 0.00471568ZM99.7335 4.08233C100.836 4.14257 101.779 3.29731 101.84 2.19438C101.9 1.09146 101.055 0.148524 99.9516 0.0882815L99.7335 4.08233ZM103.9 0.434461C102.803 0.30214 101.807 1.08385 101.674 2.18047C101.542 3.27709 102.324 4.27333 103.42 4.40566L103.9 0.434461ZM110.705 5.7592C111.776 6.02854 112.863 5.37847 113.132 4.30724C113.401 3.23602 112.751 2.14927 111.68 1.87994L110.705 5.7592ZM119.213 4.26899C118.182 3.87258 117.025 4.38701 116.629 5.418C116.232 6.44898 116.747 7.60612 117.778 8.00252L119.213 4.26899ZM121.203 9.4363C122.209 9.8924 123.394 9.44661 123.85 8.44061C124.306 7.4346 123.861 6.24933 122.855 5.79323L121.203 9.4363ZM126.399 7.52534C125.421 7.01212 124.212 7.38896 123.699 8.36706C123.186 9.34516 123.563 10.5541 124.541 11.0673L126.399 7.52534ZM130.917 14.8874C131.832 15.507 133.075 15.2682 133.695 14.3538C134.315 13.4394 134.076 12.1958 133.161 11.5762L130.917 14.8874ZM139.432 16.3472C138.591 15.6317 137.328 15.7338 136.613 16.5753C135.897 17.4168 135.999 18.679 136.841 19.3945L139.432 16.3472ZM139.615 21.8845C140.418 22.6438 141.683 22.6091 142.443 21.807C143.202 21.0048 143.168 19.739 142.365 18.9796L139.615 21.8845ZM145.156 21.7642C144.395 20.9638 143.129 20.932 142.328 21.6932C141.528 22.4543 141.496 23.7203 142.257 24.5207L145.156 21.7642ZM147.105 30.1733C147.781 31.0472 149.037 31.2078 149.911 30.5322C150.785 29.8566 150.945 28.6005 150.27 27.7266L147.105 30.1733ZM154.764 34.1752C154.177 33.2392 152.943 32.9559 152.007 33.5424C151.071 34.129 150.788 35.3632 151.374 36.2992L154.764 34.1752ZM153.287 39.5204C153.828 40.4833 155.047 40.8252 156.01 40.284C156.973 39.7428 157.315 38.5235 156.774 37.5606L153.287 39.5204ZM158.611 41.0158C158.115 40.0289 156.913 39.6309 155.926 40.1269C154.939 40.6229 154.541 41.8251 155.037 42.812L158.611 41.0158ZM158.093 49.6422C158.499 50.6695 159.661 51.1731 160.688 50.7671C161.715 50.3611 162.219 49.1993 161.813 48.172L158.093 49.6422ZM164.377 55.5658C164.059 54.508 162.944 53.9084 161.886 54.2266C160.828 54.5447 160.228 55.6601 160.547 56.7178L164.377 55.5658ZM1.16089 13.7337C1.4055 15.7187 1.40548 15.7187 1.40547 15.7187C1.40546 15.7187 1.40545 15.7187 1.40544 15.7187C1.40543 15.7187 1.40544 15.7187 1.40545 15.7187C1.40548 15.7187 1.40555 15.7187 1.40566 15.7187C1.40589 15.7186 1.40631 15.7186 1.40689 15.7185C1.40807 15.7184 1.40997 15.7181 1.41257 15.7178C1.41778 15.7172 1.42583 15.7162 1.43668 15.7149C1.4584 15.7122 1.49134 15.7082 1.53526 15.703C1.6231 15.6924 1.75483 15.6768 1.92836 15.6565C2.27544 15.616 2.78969 15.5572 3.45447 15.4843L3.01891 11.5081C2.34428 11.582 1.82064 11.6419 1.46466 11.6835C1.28667 11.7042 1.15058 11.7204 1.05849 11.7315C1.01245 11.737 0.9774 11.7413 0.95361 11.7442C0.941715 11.7456 0.932634 11.7467 0.926401 11.7475C0.923284 11.7479 0.920879 11.7482 0.919189 11.7484C0.918345 11.7485 0.917679 11.7485 0.917193 11.7486C0.91695 11.7486 0.916752 11.7487 0.916598 11.7487C0.916522 11.7487 0.916456 11.7487 0.916402 11.7487C0.916375 11.7487 0.916343 11.7487 0.916329 11.7487C0.9163 11.7487 0.916273 11.7487 1.16089 13.7337ZM7.71844 15.0466C10.0496 14.8216 12.9338 14.5652 16.2138 14.3182L15.9135 10.3295C12.6022 10.5789 9.68978 10.8378 7.33424 11.0651L7.71844 15.0466ZM24.7544 13.7653C26.142 13.6904 27.5652 13.6211 29.0165 13.5594L28.8465 9.56304C27.3793 9.62541 25.9409 9.69543 24.5389 9.77107L24.7544 13.7653ZM33.2755 13.4041C36.0591 13.3199 38.9131 13.2685 41.7891 13.2622L41.7804 9.26225C38.8628 9.26857 35.9712 9.32078 33.1546 9.40597L33.2755 13.4041ZM50.2939 13.3872C51.7171 13.4343 53.1333 13.4954 54.5366 13.5722L54.7552 9.57822C53.3211 9.49974 51.876 9.43734 50.4261 9.38939L50.2939 13.3872ZM58.7666 13.8561C61.6701 14.0892 64.4841 14.3986 67.1543 14.7979L67.7458 10.8419C64.9703 10.4269 62.0642 10.108 59.0866 9.86896L58.7666 13.8561ZM75.32 16.4455C76.7201 16.8193 78.0356 17.2301 79.256 17.6795L80.6382 13.9259C79.2866 13.4282 77.8525 12.9815 76.3518 12.5809L75.32 16.4455ZM82.9231 19.3049C85.5873 20.7373 87.3331 22.3743 88.2189 24.1796L91.8099 22.4175C90.4264 19.598 87.9062 17.4425 84.8173 15.7818L82.9231 19.3049ZM88.2633 30.9394C88.06 31.5179 87.8072 32.1239 87.5005 32.7581L91.1014 34.4998C91.4678 33.7423 91.7797 32.9977 92.037 32.2658L88.2633 30.9394ZM87.5005 32.7581C87.081 33.6253 86.6591 34.4674 86.2322 35.2843L89.7774 37.1368C90.2256 36.279 90.6661 35.3996 91.1014 34.4998L87.5005 32.7581ZM83.4386 40.123C81.3206 43.4031 79.0088 46.1078 76.2787 48.2449L78.7443 51.3946C81.9099 48.9166 84.5056 45.8445 86.7989 42.2928L83.4386 40.123ZM66.6981 52.9414C65.8471 53.1713 64.9597 53.3739 64.033 53.5482L64.7722 57.4793C65.7966 57.2866 66.7855 57.0612 67.7413 56.803L66.6981 52.9414ZM64.033 53.5482C63.3413 53.6782 62.6772 53.7818 62.04 53.8603L62.5293 57.8303C63.255 57.7408 64.0026 57.624 64.7722 57.4793L64.033 53.5482ZM58.1036 54.026C55.0077 53.8623 52.905 52.9355 51.5194 51.6321L48.7787 54.5457C51.006 56.6409 54.0853 57.8191 57.8924 58.0204L58.1036 54.026ZM48.9285 45.2675C48.8602 44.0812 48.9272 42.7894 49.134 41.4096L45.1782 40.8167C44.9366 42.429 44.8489 43.9988 44.9352 45.4974L48.9285 45.2675ZM50.0255 37.5155C50.7499 35.118 51.8176 32.5874 53.2081 30.0167L49.6898 28.1137C48.1872 30.8917 47.0083 33.6715 46.1965 36.3586L50.0255 37.5155ZM57.6975 23.0916C58.1118 22.5467 58.5392 22.0044 58.9796 21.4657L55.8826 18.9341C55.4125 19.5092 54.9559 20.0885 54.513 20.6711L57.6975 23.0916ZM58.9796 21.4657C59.3724 20.9851 59.7721 20.5147 60.1783 20.0545L57.1794 17.4074C56.7397 17.9056 56.3074 18.4145 55.8826 18.9341L58.9796 21.4657ZM62.7146 17.3934C64.4985 15.6607 66.3871 14.0994 68.3637 12.7077L66.0609 9.43705C63.9131 10.9493 61.8626 12.6447 59.9276 14.5241L62.7146 17.3934ZM74.6801 8.97073C75.7819 8.43125 76.903 7.93597 78.0413 7.48476L76.5672 3.76627C75.3333 4.25543 74.1171 4.79267 72.9211 5.37825L74.6801 8.97073ZM81.5099 6.26166C83.8473 5.53637 86.2446 4.98611 88.6838 4.61003L88.0743 0.656743C85.4444 1.06222 82.8544 1.65632 80.3245 2.44135L81.5099 6.26166ZM96.037 4.00439C97.2642 3.98878 98.497 4.01479 99.7335 4.08233L99.9516 0.0882815C98.6265 0.0158992 97.3039 -0.012048 95.9861 0.00471568L96.037 4.00439ZM103.42 4.40566C105.849 4.69866 108.282 5.15012 110.705 5.7592L111.68 1.87994C109.097 1.23039 106.497 0.747919 103.9 0.434461L103.42 4.40566ZM117.778 8.00252C118.926 8.44416 120.069 8.92213 121.203 9.4363L122.855 5.79323C121.65 5.24691 120.435 4.73877 119.213 4.26899L117.778 8.00252ZM124.541 11.0673C126.709 12.2049 128.839 13.4785 130.917 14.8874L133.161 11.5762C130.959 10.0835 128.7 8.73275 126.399 7.52534L124.541 11.0673ZM136.841 19.3945C137.781 20.1938 138.706 21.0238 139.615 21.8845L142.365 18.9796C141.405 18.0701 140.426 17.1926 139.432 16.3472L136.841 19.3945ZM142.257 24.5207C143.942 26.2921 145.561 28.1765 147.105 30.1733L150.27 27.7266C148.643 25.6223 146.935 23.6345 145.156 21.7642L142.257 24.5207ZM151.374 36.2992C152.031 37.3478 152.669 38.4216 153.287 39.5204L156.774 37.5606C156.125 36.4064 155.455 35.2779 154.764 34.1752L151.374 36.2992ZM155.037 42.812C156.136 44.998 157.157 47.2749 158.093 49.6422L161.813 48.172C160.834 45.6948 159.764 43.3091 158.611 41.0158L155.037 42.812ZM160.547 56.7178C160.727 57.3191 160.903 57.9254 161.073 58.5367L164.927 57.4633C164.749 56.8257 164.566 56.1932 164.377 55.5658L160.547 56.7178Z" fill="#006633"/>
</svg>
