<svg width="304" height="194" viewBox="0 0 304 194" fill="none" xmlns="http://www.w3.org/2000/svg">
<g opacity="0.64">
<path d="M288 191.98H191.931H198.586L259.347 191.279C270.58 190.307 278.495 179.339 274.228 168.955C273.49 167.161 274.261 166.661 273.349 164.931C263.797 147.026 247.235 132.441 228.468 123.968C228.933 123.88 229.401 123.817 229.879 123.753C226.385 122.011 222.785 120.484 219.101 119.183C217.148 118.489 215.171 117.862 213.197 117.312C203.493 114.589 190.381 115.833 186.252 126.529C182.779 135.509 187.39 146.356 196.063 150.289L211.641 156.217C211.51 156.022 211.392 155.828 211.27 155.623L224.817 160.777C225.368 161.161 225.621 161.845 225.452 162.492C225.283 163.14 224.728 163.615 224.059 163.684L191.159 167.262C186.417 167.738 180.479 169.713 176.983 172.962C174.433 175.309 172.284 178.504 172.304 182.548C170.154 182.709 168.017 183.008 165.905 183.443C162.682 184.134 159.401 185.324 159.169 187.279C158.711 191.202 164.312 192 167.842 192L145.504 191.913C147.902 191.913 148.199 191.893 149.788 190.317C151.378 188.741 153.157 187.527 153.157 185.14L153.352 177.488C153.352 175.912 153.729 174.638 152.146 174.638H138C139.176 174.67 140.263 174.015 140.779 172.962C140.79 172.949 140.797 172.934 140.799 172.918C141.506 171.61 141.668 169.729 141.537 167.949L141.702 167.366L142.126 165.81L151.112 160.546C151.18 160.507 151.245 160.464 151.308 160.418C155.996 157.565 156.582 152.465 154.975 147.905C154.942 147.818 154.922 147.74 154.888 147.667C154.814 147.472 154.746 147.288 154.662 147.103C154.233 146.063 153.702 145.068 153.076 144.133C150.755 140.525 147.387 137.584 144.187 136.816C143.29 136.615 142.372 136.513 141.452 136.515C152.587 126.12 165.417 116.883 180.57 113.811C193.828 111.085 207.54 111.44 220.637 114.851C235.942 118.905 249.724 127.321 260.654 138.687C275.366 153.967 282.247 171.818 288 191.98Z" fill="#3B3B3B"/>
<path d="M138.855 146.443C138.327 147.45 137.463 148.255 136.404 148.727C135.5 149.168 134.542 149.496 133.553 149.706C131.924 149.97 131.348 148.972 130.308 147.993C129.715 147.437 129.033 146.979 128.289 146.636C127.385 146.206 126.331 146.19 125.414 146.593C124.788 146.864 124.385 147.466 124.384 148.13C124.451 149.327 126.155 150.273 127.117 150.769C128.374 151.345 129.681 151.812 131.022 152.166C134.311 153.144 128.834 155.183 127.683 155.311C125.221 155.634 122.721 155.576 120.277 155.141C120.979 156.66 121.517 158.245 121.883 159.872C122.263 161.428 122.708 163.3 122.395 164.866C122.014 166.706 120.732 168.073 119.15 169L113 144.133C117.584 142.017 122.871 141.849 127.589 143.67C129.178 144.238 130.962 143.856 132.156 142.691L132.786 142.101C133.662 141.916 134.576 141.986 135.411 142.303C136.903 142.848 139.663 144.6 138.855 146.443Z" fill="#0C6D3D"/>
<path fill-rule="evenodd" clip-rule="evenodd" d="M144.298 175H118.941C118.41 179.838 114.229 183.506 109.247 183.505H24C24.0111 188.192 27.8992 191.989 32.6988 192H144.291C149.09 191.984 152.978 188.191 153 183.505V177.793C153 176.251 151.719 175 150.14 175L144.298 175Z" stroke="#3B3B3B" stroke-width="2"/>
<path fill-rule="evenodd" clip-rule="evenodd" d="M105.176 118.012C105.923 119.035 106.459 120.194 106.755 121.424L118.732 171.071C118.997 172.149 119.066 173.265 118.937 174.367C118.407 179.277 114.239 183.001 109.271 183H22.6968C18.1975 182.997 14.2862 179.929 13.2361 175.58L1.27186 125.932C0.571684 123.05 1.24062 120.009 3.08652 117.681C4.93242 115.353 7.75099 113.996 10.7326 114H97.2938C100.173 113.996 102.904 115.267 104.744 117.469L105.176 118.012Z" stroke="#3B3B3B" stroke-width="2"/>
<path d="M231 123.347C223.344 124.619 217.459 128.098 213.508 135.3C209.971 141.743 209.558 149.606 213.33 156L197.928 150.13C189.009 146.07 185.871 137.049 189.446 127.784C193.695 116.746 207.179 115.464 217.16 118.275C219.192 118.843 221.221 119.49 223.23 120.205C225.855 121.14 228.445 122.187 231 123.347Z" fill="#3B3B3B"/>
<path d="M50 113.8C56.1429 105.906 64.6138 100.119 74.2274 97.2494C72.9469 93.8286 71.9308 90.3156 71.188 86.741C63.2112 48.1596 88.1579 10.4414 126.944 2.48533C165.73 -5.47073 203.672 19.3277 211.669 57.899C212.563 62.2212 213.06 66.6153 213.155 71.027C215.926 70.0494 218.761 69.2638 221.641 68.6761C255.537 61.7074 288.701 83.396 295.698 117.111C299.702 136.332 294.354 156.305 281.268 171" stroke="#DDDDDD" stroke-width="2"/>
<path d="M135 174.61H137.391C138.785 174.644 140.113 174.021 140.976 172.93C140.987 172.917 140.995 172.902 141 172.886C141.858 171.718 142.248 170.273 142.096 168.834L141.9 167.318L141.738 166.095L142.325 165.759L151.519 160.355L152.14 159.999C156.629 157.368 156.952 152.462 155.192 147.814C155.161 147.73 155.138 147.653 155.107 147.576C155.03 147.381 154.952 147.199 154.878 147.015C154.428 145.982 153.897 144.987 153.29 144.037C150.966 140.418 147.597 137.475 144.389 136.705C143.491 136.501 142.572 136.4 141.651 136.403C139.728 136.403 137.604 136.769 136.487 137.874C148.413 126.184 162.345 115.212 179.104 111.808C192.385 109.08 206.12 109.443 219.238 112.87C234.563 116.933 248.377 125.377 259.321 136.769C259.898 137.367 260.461 137.972 261.007 138.59C274.724 153.611 283.472 172.584 289 192" stroke="#3B3B3B" stroke-width="2"/>
<path d="M139 192.5H304" stroke="#3B3B3B" stroke-width="2"/>
<path d="M181 192.5H199" stroke="#3B3B3B" stroke-width="2"/>
<path fill-rule="evenodd" clip-rule="evenodd" d="M196.857 150.216C188.175 146.282 183.565 135.434 187.036 126.456C191.175 115.756 204.295 114.511 213.998 117.234C215.98 117.787 217.949 118.41 219.906 119.106C241.721 126.819 261.545 142.831 272.37 163.12C273.284 164.837 274.012 166.601 274.75 168.398C276.768 173.296 276.324 178.856 273.555 183.375C270.786 187.894 266.022 190.834 260.723 191.292L199.927 192H181.216C177.826 192 174.813 189.854 173.72 186.661C171.668 180.625 174.32 176.071 177.674 172.969C181.172 169.736 185.735 167.889 190.48 167.412L224.634 163.978C225.304 163.91 225.861 163.435 226.031 162.787C226.201 162.139 225.95 161.454 225.399 161.068L196.857 150.216Z" stroke="#3B3B3B" stroke-width="2"/>
<path d="M186 174C183.16 175.783 180.241 178.575 179.264 182.11C178.141 186.182 180.778 189.882 183.774 192" stroke="#3B3B3B" stroke-width="2"/>
<path d="M189 179C186.287 181.684 183.935 185.088 185.504 189.136C185.953 190.246 186.651 191.229 187.541 192" stroke="#3B3B3B" stroke-width="2"/>
<path d="M195 184C195 184 189.792 188.375 193.1 191" stroke="#3B3B3B" stroke-width="2"/>
<path d="M176.887 191.547L177 192H166.654C163.273 192 158.587 191.486 159.029 187.752C159.471 184.018 171.582 183 171.582 183" stroke="#3B3B3B" stroke-width="2"/>
<path d="M142 166C142 166 141.317 160.085 139 158" stroke="#3B3B3B" stroke-width="2"/>
<path d="M112 144C116.62 141.788 121.984 141.586 126.765 143.444C128.351 144.014 130.133 143.631 131.326 142.462L136 138" stroke="#3B3B3B" stroke-width="2"/>
<path d="M127 170.034L130.603 170.973C130.765 171.012 130.948 171.009 131.106 170.965C131.264 170.921 131.383 170.841 131.433 170.743L132 170" stroke="#3B3B3B" stroke-width="2"/>
<path d="M127.633 163C128.294 164.332 128.05 165.876 127 167" stroke="#3B3B3B" stroke-width="2"/>
<path d="M135.56 174C136.058 173.196 136.056 171.252 135.928 170.472C135.846 169.976 135.08 169.798 134.998 170.297C134.775 171.688 133.333 173.828 132 174" stroke="#3B3B3B" stroke-width="2"/>
<circle cx="129" cy="164" r="5" stroke="#3B3B3B" stroke-width="2"/>
<path d="M127 169L126.143 171.261C124.942 170.859 123.619 170.922 122.467 171.436C121.314 171.949 120.427 172.872 120 174" stroke="#3B3B3B" stroke-width="2"/>
<circle opacity="0.53" cx="129" cy="164" r="4" fill="white"/>
<path d="M119 169C120.515 168.073 121.74 166.714 122.104 164.866C122.407 163.296 121.981 161.425 121.617 159.867C121.267 158.239 120.752 156.653 120.08 155.132C122.42 155.567 124.813 155.623 127.171 155.299C128.27 155.175 133.517 153.144 130.368 152.155C129.084 151.801 127.834 151.333 126.633 150.754C125.704 150.267 124.077 149.32 124.019 148.119C124.011 147.455 124.39 146.85 124.986 146.574C125.864 146.173 126.874 146.191 127.738 146.623C128.453 146.964 129.107 147.423 129.672 147.982C130.671 148.961 131.216 149.941 132.783 149.689C133.728 149.483 134.644 149.154 135.506 148.71C136.523 148.239 137.352 147.433 137.859 146.424C138.639 144.586 135.99 142.832 134.552 142.307C133.754 141.989 132.88 141.916 132.041 142.098" stroke="#3B3B3B" stroke-width="2"/>
<path d="M231 124.145L230.704 124.855C230.48 124.655 230.244 124.482 230 124.335L231 124.145Z" fill="#3B3B3B"/>
</g>
</svg>
