<svg width="28" height="28" viewBox="0 0 28 28" fill="none" xmlns="http://www.w3.org/2000/svg">
<path d="M25.6666 12.2502V18.0835C25.6666 22.1668 23.3333 23.9168 19.8333 23.9168H8.16665C4.66665 23.9168 2.33331 22.1668 2.33331 18.0835V9.91683C2.33331 5.8335 4.66665 4.0835 8.16665 4.0835H16.3333" stroke="#3B3B3B" stroke-width="2.5" stroke-miterlimit="10" stroke-linecap="round" stroke-linejoin="round"/>
<path d="M8.16669 10.5L11.8184 13.4167C13.02 14.3733 14.9917 14.3733 16.1934 13.4167L17.57 12.32" stroke="#3B3B3B" stroke-width="2.5" stroke-miterlimit="10" stroke-linecap="round" stroke-linejoin="round"/>
<path d="M22.75 9.33333C24.3608 9.33333 25.6666 8.0275 25.6666 6.41667C25.6666 4.80584 24.3608 3.5 22.75 3.5C21.1391 3.5 19.8333 4.80584 19.8333 6.41667C19.8333 8.0275 21.1391 9.33333 22.75 9.33333Z" fill="#C63636" stroke="#C63636" stroke-width="2.5" stroke-miterlimit="10" stroke-linecap="round" stroke-linejoin="round"/>
</svg>
