<svg width="24" height="25" viewBox="0 0 24 25" fill="none" xmlns="http://www.w3.org/2000/svg">
<path d="M5 10.5H7C9 10.5 10 9.5 10 7.5V5.5C10 3.5 9 2.5 7 2.5H5C3 2.5 2 3.5 2 5.5V7.5C2 9.5 3 10.5 5 10.5Z" stroke="#3B3B3B" stroke-opacity="0.56" stroke-width="1.85" stroke-miterlimit="10" stroke-linecap="round" stroke-linejoin="round"/>
<path d="M17 10.5H19C21 10.5 22 9.5 22 7.5V5.5C22 3.5 21 2.5 19 2.5H17C15 2.5 14 3.5 14 5.5V7.5C14 9.5 15 10.5 17 10.5Z" stroke="#3B3B3B" stroke-opacity="0.56" stroke-width="1.85" stroke-miterlimit="10" stroke-linecap="round" stroke-linejoin="round"/>
<path d="M17 22.5H19C21 22.5 22 21.5 22 19.5V17.5C22 15.5 21 14.5 19 14.5H17C15 14.5 14 15.5 14 17.5V19.5C14 21.5 15 22.5 17 22.5Z" stroke="#3B3B3B" stroke-opacity="0.56" stroke-width="1.85" stroke-miterlimit="10" stroke-linecap="round" stroke-linejoin="round"/>
<path d="M5 22.5H7C9 22.5 10 21.5 10 19.5V17.5C10 15.5 9 14.5 7 14.5H5C3 14.5 2 15.5 2 17.5V19.5C2 21.5 3 22.5 5 22.5Z" stroke="#3B3B3B" stroke-opacity="0.56" stroke-width="1.85" stroke-miterlimit="10" stroke-linecap="round" stroke-linejoin="round"/>
</svg>
