<svg width="24" height="25" viewBox="0 0 24 25" fill="none" xmlns="http://www.w3.org/2000/svg">
<path d="M10.07 3.31984L3.14001 8.86983C2.36001 9.48983 1.86001 10.7999 2.03001 11.7799L3.36001 19.7398C3.60001 21.1598 4.96 22.3098 6.4 22.3098H17.6C19.03 22.3098 20.4 21.1498 20.64 19.7398L21.97 11.7799C22.13 10.7999 21.63 9.48983 20.86 8.86983L13.93 3.32985C12.86 2.46985 11.13 2.46984 10.07 3.31984Z" stroke="#002" stroke-opacity="0.56" stroke-width="1.85" stroke-linecap="round" stroke-linejoin="round"/>
<path d="M12 16C13.3807 16 14.5 14.8807 14.5 13.5C14.5 12.1193 13.3807 11 12 11C10.6193 11 9.5 12.1193 9.5 13.5C9.5 14.8807 10.6193 16 12 16Z" fill="white" stroke="#001" stroke-opacity="0.56" stroke-width="1.85" stroke-linecap="round" stroke-linejoin="round"/>
</svg>
