<svg width="20" height="12" viewBox="0 0 20 12" fill="none" xmlns="http://www.w3.org/2000/svg">
<path d="M18.6576 4.00818C18.7633 4.07869 18.8496 4.17264 18.9092 4.28202C18.9689 4.3914 19 4.51297 19 4.63636C19 4.75976 18.9689 4.88133 18.9092 4.99071C18.8496 5.10009 18.7633 5.19404 18.6576 5.26455C17.1726 6.30546 13.8543 8.27273 10 8.27273C6.14565 8.27273 2.82742 6.30546 1.34243 5.26455C1.23673 5.19404 1.15038 5.10009 1.09076 4.99071C1.03114 4.88133 1 4.75976 1 4.63636C1 4.51297 1.03114 4.3914 1.09076 4.28202C1.15038 4.17264 1.23673 4.07869 1.34243 4.00818C2.82742 2.96727 6.14565 1 10 1C13.8543 1 17.1726 2.96727 18.6576 4.00818V4.00818Z" stroke="#0C6D3D" stroke-width="2" stroke-linecap="round" stroke-linejoin="round"/>
<path d="M10 8.27271V11" stroke="#0C6D3D" stroke-width="2" stroke-linecap="round" stroke-linejoin="round"/>
<path d="M16.6423 6.45447L18.5401 8.72719" stroke="#0C6D3D" stroke-width="2" stroke-linecap="round" stroke-linejoin="round"/>
<path d="M13.7947 7.81812L14.7436 10.5454" stroke="#0C6D3D" stroke-width="2" stroke-linecap="round" stroke-linejoin="round"/>
<path d="M5.2561 10.5454L6.20498 7.81812" stroke="#0C6D3D" stroke-width="2" stroke-linecap="round" stroke-linejoin="round"/>
<path d="M3.35699 6.45447L1.45923 8.72719" stroke="#0C6D3D" stroke-width="2" stroke-linecap="round" stroke-linejoin="round"/>
</svg>
